<svg width="52" height="52" viewBox="0 0 52 52" fill="none" xmlns="http://www.w3.org/2000/svg">
<path d="M47 16.6666C49.5774 16.6666 51.6667 18.7559 51.6667 21.3333V30.6666C51.6667 33.244 49.5774 35.3333 47 35.3333H44.5222C43.374 44.5413 35.5191 51.6666 26 51.6666V46.9999C33.732 46.9999 40 40.7319 40 32.9999V18.9999C40 11.2679 33.732 4.99992 26 4.99992C18.268 4.99992 12 11.2679 12 18.9999V35.3333H5.00001C2.42268 35.3333 0.333344 33.244 0.333344 30.6666V21.3333C0.333344 18.7559 2.42268 16.6666 5.00001 16.6666H7.47775C8.62599 7.45853 16.4809 0.333252 26 0.333252C35.5191 0.333252 43.374 7.45853 44.5222 16.6666H47ZM16.1054 34.8314L18.579 30.8736C20.7304 32.2211 23.2742 32.9999 26 32.9999C28.7258 32.9999 31.2696 32.2211 33.4209 30.8736L35.8947 34.8314C33.0261 36.628 29.6344 37.6666 26 37.6666C22.3656 37.6666 18.9739 36.628 16.1054 34.8314Z" fill="#1A73E8"/>
</svg>
